# Blender v2.92.0 OBJ File: 'untitled.blend'
# www.blender.org
mtllib JustACube.mtl
o Cube
v 1.000000 -1.000000 1.000000
v 1.000000 -1.000000 -1.000000
v -1.000000 -1.000000 1.000000
v -1.000000 -1.000000 -1.000000
v 1.000000 1.000000 1.000000
v 1.000000 1.000000 -1.000000
v -1.000000 1.000000 1.000000
v -1.000000 1.000000 -1.000000
vt 0.500000 0.666000
vt 0.250000 0.999900
vt 0.250000 0.666600
vt 0.750000 0.666000
vt 0.500000 0.333000
vt 0.750000 0.333000
vt 0.999900 0.999900
vt 0.000100 0.000100
vt 0.999900 0.000100
vt 0.999900 0.000100
vt 0.000100 0.999900
vt 0.500000 0.660000
vt 0.250000 0.330000
vt 0.500000 0.330000
vt 0.250000 0.660000
vt 0.000100 0.333000
vt 0.250000 0.330000
vt 0.500000 0.999900
vt 0.500000 0.666000
vt 0.000100 0.999900
vt 0.000100 0.660000
vt 1.000000 1.000000
vt 0.250000 0.660000
vn 0.0000 0.0000 1.0000
vn -1.0000 0.0000 0.0000
vn 0.0000 1.0000 0.0000
vn 0.0000 0.0000 -1.0000
vn 0.0000 -1.0000 0.0000
vn 1.0000 0.0000 0.0000
usemtl Mat
s off
f 5/1/1 3/2/1 1/3/1
f 3/4/2 8/5/2 4/6/2
f 7/7/3 6/8/3 8/9/3
f 2/10/4 8/11/4 6/8/4
f 1/12/5 4/13/5 2/14/5
f 5/15/6 2/16/6 6/17/6
f 5/1/1 7/18/1 3/2/1
f 3/4/2 7/19/2 8/5/2
f 7/7/3 5/20/3 6/8/3
f 5/15/6 1/21/6 2/16/6
f 2/10/4 4/22/4 8/11/4
f 1/12/5 3/23/5 4/13/5
